<?xml version="1.0" standalone="no"?>
<!DOCTYPE svg PUBLIC "-//W3C//DTD SVG 20010904//EN"
 "http://www.w3.org/TR/2001/REC-SVG-20010904/DTD/svg10.dtd">
<svg version="1.0" xmlns="http://www.w3.org/2000/svg"
 width="2048.000000pt" height="2048.000000pt" viewBox="0 0 2048.000000 2048.000000"
 preserveAspectRatio="xMidYMid meet">
<metadata>
Created by potrace 1.14, written by Peter Selinger 2001-2017
</metadata>
<g transform="translate(0.000000,2048.000000) scale(0.100000,-0.100000)"
fill="#000000" stroke="none">
<path d="M9350 20470 c-2863 -54 -4641 -345 -6000 -983 -716 -335 -1348 -840
-1801 -1437 -913 -1204 -1374 -2985 -1504 -5815 -66 -1444 -54 -3227 30 -4545
183 -2849 761 -4606 1885 -5730 139 -139 320 -297 470 -411 1204 -913 2985
-1374 5815 -1504 1444 -66 3227 -54 4545 30 2849 183 4606 761 5730 1885 139
139 297 320 411 470 913 1204 1374 2985 1504 5815 66 1444 54 3227 -30 4545
-183 2849 -761 4606 -1885 5730 -693 693 -1599 1163 -2845 1476 -1067 268
-2347 412 -4110 464 -488 14 -1706 20 -2215 10z m1230 -4780 c868 -60 1643
-295 2390 -723 708 -406 1353 -1012 1817 -1707 452 -678 743 -1441 857 -2242
43 -304 51 -417 51 -778 0 -361 -8 -474 -51 -779 -111 -785 -399 -1543 -841
-2216 -224 -340 -398 -551 -712 -865 -294 -293 -518 -479 -831 -687 -680 -453
-1440 -743 -2242 -857 -304 -43 -417 -51 -778 -51 -361 0 -474 8 -778 51
-1045 148 -2039 609 -2837 1315 -156 138 -442 431 -568 584 -654 786 -1067
1698 -1216 2685 -70 464 -79 984 -25 1455 97 853 396 1667 878 2390 90 136
236 335 245 335 3 0 84 -61 179 -136 l172 -136 -20 -26 c-615 -803 -957 -1702
-1031 -2710 -17 -232 -7 -697 20 -917 121 -1005 502 -1888 1150 -2665 124
-149 454 -479 601 -601 337 -280 653 -486 1025 -669 568 -280 1141 -438 1785
-495 191 -17 609 -20 796 -5 1061 84 2029 480 2854 1169 151 126 470 445 597
596 589 706 966 1513 1112 2385 58 342 66 442 66 850 0 295 -4 407 -18 525
-72 616 -224 1139 -482 1670 -247 506 -557 938 -964 1345 -854 852 -1919 1349
-3121 1455 -91 8 -173 15 -182 15 -17 0 -18 -47 -18 -850 l0 -850 -220 0 -220
0 0 1075 0 1075 208 0 c114 0 272 -5 352 -10z m-1825 -3958 c583 -372 1074
-684 1092 -694 l32 -19 88 30 c119 41 218 55 333 48 396 -25 727 -315 806
-706 26 -133 16 -308 -25 -430 -58 -172 -143 -300 -272 -409 -81 -68 -236
-151 -334 -177 -92 -25 -303 -31 -398 -11 -165 34 -309 109 -430 225 -223 213
-317 502 -258 790 l22 104 -24 26 c-20 22 -1616 1795 -1696 1885 -14 16 -19
25 -11 21 8 -5 492 -312 1075 -683z"/>
</g>
</svg>
